<?xml version="1.0" encoding="utf-8"?>
<!-- Generator: Adobe Illustrator 26.2.1, SVG Export Plug-In . SVG Version: 6.00 Build 0)  -->
<svg version="1.1" id="Layer_1" xmlns="http://www.w3.org/2000/svg" xmlns:xlink="http://www.w3.org/1999/xlink" x="0px" y="0px"
	 viewBox="0 0 700 500" style="enable-background:new 0 0 700 500;" xml:space="preserve">
<style type="text/css">
	.st0{fill:#EAE8ED;}
	.st1{fill:#596876;}
	.st2{fill:#1C1A2A;}
	.st3{fill:#717F90;}
	.st4{fill:#403D54;}
	.st5{fill:#2F2D3D;}
	.st6{fill:#585858;}
	.st7{fill:url(#SVGID_1_);}
	.st8{fill:#090000;}
	.st9{fill:#1A2738;}
	.st10{opacity:0.27;}
	.st11{fill:#8140FF;}
	.st12{fill:#A68EFE;}
	.st13{fill:#FCFFFF;}
	.st14{fill:#D2448D;}
	.st15{fill:#FF73B5;}
	.st16{fill:#D22E72;}
	.st17{fill:#DCD3FE;}
	.st18{fill:#E8ACD5;}
	.st19{fill:#987CFE;}
</style>
<g>
	<g>
		<path class="st0" d="M331.96,384.01l-66.2,38.22c-2.15,1.24-5.64,1.24-7.79,0l0,0c-2.15-1.24-2.15-3.25,0-4.5l66.2-38.22
			c2.15-1.24,5.64-1.24,7.79,0l0,0C334.11,380.76,334.11,382.77,331.96,384.01z"/>
		<path class="st0" d="M383.1,354.48l-34.99,20.2c-2.15,1.24-5.64,1.24-7.79,0l0,0c-2.15-1.24-2.15-3.25,0-4.5l34.99-20.2
			c2.15-1.24,5.64-1.24,7.79,0h0C385.25,351.23,385.25,353.24,383.1,354.48z"/>
	</g>
	<path class="st0" d="M351.58,352.62l-66.2,38.22c-2.15,1.24-5.64,1.24-7.79,0l0,0c-2.15-1.24-2.15-3.25,0-4.5l66.2-38.22
		c2.15-1.24,5.64-1.24,7.79,0l0,0C353.73,349.37,353.73,351.38,351.58,352.62z"/>
	<path class="st0" d="M436.23,303.75l-66.2,38.22c-2.15,1.24-5.64,1.24-7.79,0l0,0c-2.15-1.24-2.15-3.25,0-4.5l66.2-38.22
		c2.15-1.24,5.64-1.24,7.79,0l0,0C438.39,300.5,438.39,302.51,436.23,303.75z"/>
	<path class="st0" d="M474.25,321.91l-66.2,38.22c-2.15,1.24-5.64,1.24-7.79,0l0,0c-2.15-1.24-2.15-3.25,0-4.5l66.2-38.22
		c2.15-1.24,5.64-1.24,7.79,0l0,0C476.41,318.66,476.41,320.67,474.25,321.91z"/>
	<path class="st0" d="M349.33,394.04l-19.38,11.19c-2.15,1.24-5.64,1.24-7.79,0l0,0c-2.15-1.24-2.15-3.25,0-4.5l19.38-11.19
		c2.15-1.24,5.64-1.24,7.79,0l0,0C351.48,390.78,351.48,392.8,349.33,394.04z"/>
	<path class="st0" d="M515.46,298.12l-19.38,11.19c-2.15,1.24-5.64,1.24-7.79,0l0,0c-2.15-1.24-2.15-3.25,0-4.5l19.38-11.19
		c2.15-1.24,5.64-1.24,7.79,0l0,0C517.61,294.86,517.61,296.88,515.46,298.12z"/>
	<path class="st0" d="M364.75,324.97l-66.2,38.22c-2.15,1.24-5.64,1.24-7.79,0l0,0c-2.15-1.24-2.15-3.25,0-4.5l66.2-38.22
		c2.15-1.24,5.64-1.24,7.79,0l0,0C366.9,321.71,366.9,323.72,364.75,324.97z"/>
	<path class="st0" d="M405.96,301.17l-19.38,11.19c-2.15,1.24-5.64,1.24-7.79,0l0,0c-2.15-1.24-2.15-3.25,0-4.5l19.38-11.19
		c2.15-1.24,5.64-1.24,7.79,0l0,0C408.11,297.92,408.11,299.93,405.96,301.17z"/>
</g>
<g>
	<g>
		<path class="st0" d="M482.49,375.14l-66.2,38.22c-2.15,1.24-5.64,1.24-7.79,0l0,0c-2.15-1.24-2.15-3.25,0-4.5l66.2-38.22
			c2.15-1.24,5.64-1.24,7.79,0l0,0C484.64,371.89,484.64,373.9,482.49,375.14z"/>
		<path class="st0" d="M533.64,345.61l-34.99,20.2c-2.15,1.24-5.64,1.24-7.79,0l0,0c-2.15-1.24-2.15-3.25,0-4.5l34.99-20.2
			c2.15-1.24,5.64-1.24,7.79,0l0,0C535.79,342.36,535.79,344.37,533.64,345.61z"/>
	</g>
	<path class="st0" d="M502.12,343.75l-66.2,38.22c-2.15,1.24-5.64,1.24-7.79,0l0,0c-2.15-1.24-2.15-3.25,0-4.5l66.2-38.22
		c2.15-1.24,5.64-1.24,7.79,0l0,0C504.27,340.5,504.27,342.51,502.12,343.75z"/>
	<path class="st0" d="M586.77,294.88l-66.2,38.22c-2.15,1.24-5.64,1.24-7.79,0h0c-2.15-1.24-2.15-3.25,0-4.5l66.2-38.22
		c2.15-1.24,5.64-1.24,7.79,0l0,0C588.92,291.63,588.92,293.64,586.77,294.88z"/>
	<path class="st0" d="M624.79,313.04l-66.2,38.22c-2.15,1.24-5.64,1.24-7.79,0v0c-2.15-1.24-2.15-3.25,0-4.5l66.2-38.22
		c2.15-1.24,5.64-1.24,7.79,0l0,0C626.94,309.79,626.94,311.8,624.79,313.04z"/>
	<path class="st0" d="M499.86,385.17l-19.38,11.19c-2.15,1.24-5.64,1.24-7.79,0l0,0c-2.15-1.24-2.15-3.25,0-4.5l19.38-11.19
		c2.15-1.24,5.64-1.24,7.79,0l0,0C502.01,381.91,502.01,383.93,499.86,385.17z"/>
	<path class="st0" d="M666,289.25l-19.38,11.19c-2.15,1.24-5.64,1.24-7.79,0l0,0c-2.15-1.24-2.15-3.25,0-4.5l19.38-11.19
		c2.15-1.24,5.64-1.24,7.79,0l0,0C668.15,285.99,668.15,288.01,666,289.25z"/>
	<path class="st0" d="M515.29,316.1l-66.2,38.22c-2.15,1.24-5.64,1.24-7.79,0l0,0c-2.15-1.24-2.15-3.25,0-4.5l66.2-38.22
		c2.15-1.24,5.64-1.24,7.79,0l0,0C517.44,312.84,517.44,314.85,515.29,316.1z"/>
	<path class="st0" d="M556.5,292.3l-19.38,11.19c-2.15,1.24-5.64,1.24-7.79,0l0,0c-2.15-1.24-2.15-3.25,0-4.5l19.38-11.19
		c2.15-1.24,5.64-1.24,7.79,0l0,0C558.65,289.05,558.65,291.06,556.5,292.3z"/>
</g>
<g>
	<g>
		<path class="st1" d="M365.96,302.15c0.92,1.15,2.16,2.03,3.46,2.75l156.18,86.59c1.81,1.01,3.77,1.72,5.87,2.16
			c2.02,0.41,4.16,0.64,6.32,0.65c4.3,0.02,8.67-0.85,12.21-2.81l74.32-41.2c2.1-1.16,4.38-3.17,4.92-5.44
			c0.09-0.38,0.13-0.77,0.13-1.15c0,4.62,0,6.01,0,10.63c0.01,2.92-2.35,5.27-5.05,6.76l-74.32,41.21c-1.81,1-3.77,1.72-5.87,2.15
			c-6.03,1.24-13.21,0.8-18.53-2.15l-156.18-86.6c-0.67-0.38-1.33-0.8-1.96-1.28c-1.7-1.29-3.09-3.45-3.09-5.53h-0.01
			c0-4.67,0-6.1,0-10.77h0.01C364.41,299.56,365.04,301,365.96,302.15z"/>
		<path class="st2" d="M593.43,370.73c0.48-0.26,0.9-0.3,1.23-0.15c0.37,0.17,0.6,0.57,0.6,1.17v0.76c0,1.13-0.83,2.5-1.83,3.05
			l-12.57,6.97c-0.51,0.28-0.96,0.31-1.29,0.13c-0.34-0.18-0.54-0.58-0.54-1.14v-0.77c0-1.12,0.83-2.49,1.83-3.04L593.43,370.73z"/>
		<path class="st2" d="M565.53,386.01c1.75-1.71,3.43-1.03,3.38,0.74c-0.07,2.65-2.81,5.23-4.29,4.35c-0.2-0.12-0.36-0.29-0.51-0.53
			c-0.25-0.41-0.26-0.92-0.2-1.4c0.07-0.58,0.25-1.15,0.52-1.67c0,0,0-0.01,0.01-0.01c0.14-0.21,0.27-0.42,0.39-0.65
			C565.04,386.53,565.27,386.26,565.53,386.01z"/>
		<path class="st3" d="M368.99,301.49c1.28,1.49,2.31,1.88,6.8,4.4c0.08,0.05,152.2,84.42,152.99,84.79
			c2.58,1.21,5.8,1.82,9.02,1.82l-0.02,1.8c-2.16-0.01-4.3-0.24-6.32-0.65c-2.11-0.43-4.06-1.15-5.87-2.16L369.41,304.9
			c-1.29-0.72-2.53-1.6-3.46-2.75c-0.92-1.15-1.55-2.59-1.59-4.02c-0.02-0.45,0.02-0.89,0.12-1.33c0.55-2.27,2.82-4.27,4.92-5.44
			l74.32-41.2c3.54-1.96,7.9-2.81,12.2-2.8l-0.02,1.8c-1.59,0-3.22,0.15-4.8,0.47c-3.22,0.66-4.77,1.6-7.16,2.97
			c-2.43,1.4,5.52-3.1-27.9,15.42c-5.44,3.02-10.85,6.09-16.29,9.1c-5.44,3.01-10.9,5.96-16.33,9.01c-2.26,1.27-4.52,2.56-6.79,3.79
			c-2.66,1.44-5.13,2.69-6.4,3.67C367.42,295.79,366.68,298.81,368.99,301.49z"/>
		<g>
			<polygon class="st4" points="406.47,331.17 407.71,330.48 394.01,322.88 392.77,323.57 			"/>
			<polygon class="st5" points="407.71,332.14 407.71,330.48 406.47,331.17 406.47,332.83 			"/>
			<polygon class="st6" points="406.47,332.83 406.47,331.17 392.77,323.57 392.77,325.23 			"/>
		</g>
		<path class="st2" d="M557.51,393.01L557.51,393.01c0.26-0.15,0.48-0.5,0.48-0.78l0,0c0-0.28-0.22-0.39-0.48-0.25l0,0
			c-0.26,0.15-0.48,0.5-0.48,0.78l0,0C557.03,393.05,557.25,393.16,557.51,393.01z"/>
		<g>
			<path class="st2" d="M620.32,360.68L620.32,360.68c0.41-0.23,0.75-0.77,0.75-1.21v-3.42c0-0.44-0.34-0.61-0.75-0.38l0,0
				c-0.41,0.23-0.75,0.77-0.75,1.21v3.42C619.57,360.74,619.91,360.91,620.32,360.68z"/>
			<path class="st2" d="M617.33,362.34L617.33,362.34c0.41-0.23,0.75-0.77,0.75-1.21v-3.42c0-0.44-0.34-0.61-0.75-0.38l0,0
				c-0.41,0.23-0.75,0.77-0.75,1.21v3.42C616.58,362.4,616.92,362.57,617.33,362.34z"/>
			<path class="st2" d="M614.34,364L614.34,364c0.41-0.23,0.75-0.77,0.75-1.21v-3.42c0-0.44-0.34-0.61-0.75-0.38l0,0
				c-0.41,0.23-0.75,0.77-0.75,1.21v3.42C613.59,364.05,613.93,364.23,614.34,364z"/>
			<path class="st2" d="M611.35,365.66L611.35,365.66c0.41-0.23,0.75-0.77,0.75-1.21v-3.42c0-0.44-0.34-0.61-0.75-0.38l0,0
				c-0.41,0.23-0.75,0.77-0.75,1.21v3.42C610.6,365.71,610.94,365.88,611.35,365.66z"/>
			<path class="st2" d="M608.36,367.31L608.36,367.31c0.41-0.23,0.75-0.77,0.75-1.21v-3.42c0-0.44-0.34-0.61-0.75-0.38l0,0
				c-0.41,0.23-0.75,0.77-0.75,1.21v3.42C607.61,367.37,607.95,367.54,608.36,367.31z"/>
			<path class="st2" d="M605.37,368.97L605.37,368.97c0.41-0.23,0.75-0.77,0.75-1.21v-3.42c0-0.44-0.34-0.61-0.75-0.38l0,0
				c-0.41,0.23-0.75,0.77-0.75,1.21v3.42C604.63,369.03,604.96,369.2,605.37,368.97z"/>
		</g>
		<path class="st3" d="M624.31,350.29l-74.32,41.2c-3.54,1.96-7.91,2.82-12.21,2.81l0.02-1.8c2.86,0,5.74-0.49,8.19-1.47
			c1.44-0.58,2.51-1.24,3.79-1.98c2.43-1.4-5.52,3.1,27.9-15.42c5.44-3.02,10.85-6.09,16.29-9.1c5.45-3.01,10.91-5.97,16.33-9.01
			c2.26-1.27,4.52-2.56,6.79-3.79c4.5-2.43,6.62-3.38,8.01-5.3c1.82-2.51,1.4-5.83-3.09-8.38c-0.17-0.1-156.36-86.73-157.07-87.06
			c-2.48-1.15-5.68-1.82-9.02-1.82l0.02-1.8c2.16,0.01,4.3,0.24,6.33,0.65c2.11,0.43,4.06,1.15,5.88,2.16l156.17,86.59
			c1.3,0.72,2.53,1.6,3.46,2.75c0.96,1.2,1.59,2.71,1.59,4.2c0,0.39-0.04,0.77-0.13,1.15C628.68,347.13,626.4,349.13,624.31,350.29z
			"/>
		<g>
			<path class="st3" d="M467.81,252.57c-1.81-1.01-2.83-1.57-2.88-1.59c-2.48-1.16-5.67-1.81-9.02-1.82c-1.58,0-3.22,0.15-4.8,0.48
				c-3.22,0.65-4.78,1.59-7.16,2.97c-2.25,1.3,4.46-2.51-21.51,11.87l-6.39,3.55c-5.44,3.02-10.85,6.09-16.28,9.1
				c-1.49,0.83-2.98,1.65-4.48,2.46c-3.95,2.18-7.92,4.34-11.86,6.55c-2.26,1.28-4.51,2.56-6.79,3.79c-2.65,1.44-5.13,2.7-6.4,3.67
				c-2.83,2.18-3.57,5.21-1.25,7.88c1.29,1.48,2.31,1.88,6.81,4.4l66.06,36.63c41.2,22.84,86.5,47.96,86.94,48.16
				c2.58,1.21,5.8,1.82,9.01,1.82c2.86,0,5.74-0.49,8.18-1.47c1.44-0.58,2.52-1.24,3.79-1.97c2.43-1.4-5.52,3.1,27.9-15.42
				c5.44-3.02,10.85-6.09,16.29-9.11c5.44-3.01,10.91-5.96,16.34-9.01c2.25-1.27,4.51-2.56,6.78-3.79c4.51-2.43,6.62-3.38,8.01-5.3
				c1.75-2.42,1.43-5.57-2.59-8.08c-0.16-0.1-0.33-0.21-0.51-0.3C621.84,337.95,489.19,264.37,467.81,252.57z"/>
			<linearGradient id="SVGID_1_" gradientUnits="userSpaceOnUse" x1="367.6109" y1="320.8326" x2="626.1009" y2="320.8326">
				<stop  offset="0" style="stop-color:#C4B8E9"/>
				<stop  offset="0.4166" style="stop-color:#B2CFDE"/>
				<stop  offset="1" style="stop-color:#FFCADE"/>
			</linearGradient>
			<path class="st7" d="M622.5,338.34c4.02,2.51,4.34,5.66,2.59,8.08c-1.39,1.92-3.51,2.87-8.01,5.3c-2.27,1.23-4.53,2.52-6.78,3.79
				c-5.43,3.05-10.89,6-16.34,9.01c-5.44,3.01-10.85,6.08-16.29,9.11c-33.42,18.52-25.47,14.02-27.9,15.42
				c-1.27,0.74-2.35,1.4-3.79,1.97c-5.23,2.1-12.37,1.92-17.19-0.35c-0.72-0.34-132.99-73.7-152.99-84.79
				c-4.49-2.52-5.52-2.92-6.81-4.4c-2.32-2.68-1.57-5.7,1.25-7.88c1.54-1.18,2.88-1.64,13.19-7.46c3.07-1.73,6.16-3.42,9.24-5.11
				c1.45-0.79,3.78-0.79,5.22,0.01c3.39,1.88,8.89,1.88,12.29,0l14.91-8.27c3.39-1.88,3.39-4.93,0-6.81
				c-1.53-0.85-1.43-2.14-0.03-2.92c22.89-12.67,16.71-9.17,18.88-10.42c2.39-1.38,3.95-2.31,7.16-2.97
				c4.92-1.01,10.21-0.35,13.83,1.34C465.03,251.02,460.8,248.68,622.5,338.34z"/>
		</g>
		<g>
			<path class="st8" d="M419.23,270.12c0.67-0.38,1.76-0.38,2.44,0l0.9,0.5l-16.54,9.17c-0.67,0.38-1.77,0.37-2.44,0l-0.9-0.5
				L419.23,270.12z"/>
			<path class="st9" d="M421.66,268.5l1.14,0.63c0.68,0.38,0.67,0.98,0,1.35l-0.24,0.13l-0.9-0.5c-0.67-0.38-1.76-0.38-2.44,0
				l-16.54,9.17l-0.24-0.13c-0.33-0.18-0.5-0.43-0.51-0.66c0-0.01,0-0.01,0-0.02c0-0.24,0.17-0.49,0.51-0.67l16.78-9.31
				C419.9,268.12,421,268.13,421.66,268.5z"/>
		</g>
		<path class="st3" d="M391.05,286.42c1.38,0.76,3.61,0.76,4.98,0s1.38-2,0-2.76c-1.38-0.76-3.61-0.76-4.98,0
			C389.67,284.42,389.67,285.66,391.05,286.42z"/>
		<path class="st3" d="M438.69,260c1.38,0.76,3.61,0.76,4.98,0c1.38-0.76,1.38-2,0-2.76c-1.38-0.76-3.61-0.76-4.98,0
			C437.32,258,437.32,259.24,438.69,260z"/>
		<path class="st3" d="M383.58,290.56c0.69,0.38,1.8,0.38,2.49,0c0.69-0.38,0.69-1,0-1.38c-0.69-0.38-1.8-0.38-2.49,0
			C382.89,289.56,382.89,290.18,383.58,290.56z"/>
		<path class="st3" d="M428.1,265.53c0.69,0.38,1.8,0.38,2.49,0c0.69-0.38,0.69-1,0-1.38c-0.69-0.38-1.8-0.38-2.49,0
			C427.42,264.53,427.42,265.15,428.1,265.53z"/>
		<path class="st3" d="M432.15,263.28c0.69,0.38,1.8,0.38,2.49,0c0.69-0.38,0.69-1,0-1.38c-0.69-0.38-1.8-0.38-2.49,0
			C431.46,262.28,431.46,262.9,432.15,263.28z"/>
	</g>
	<g class="st10">
		<path class="st3" d="M436.15,287.41l-33.87,18.78c-1.1,0.61-2.88,0.61-3.98,0l0,0c-1.1-0.61-1.1-1.6,0-2.21l33.87-18.78
			c1.1-0.61,2.88-0.61,3.98,0l0,0C437.25,285.82,437.25,286.8,436.15,287.41z"/>
		<path class="st3" d="M433.88,297.51l-23.64,13.11c-1.1,0.61-2.88,0.61-3.98,0l0,0c-1.1-0.61-1.1-1.6,0-2.21l23.64-13.11
			c1.1-0.61,2.88-0.61,3.98,0l0,0C434.98,295.91,434.98,296.9,433.88,297.51z"/>
		<path class="st3" d="M441.85,301.92l-23.64,13.11c-1.1,0.61-2.88,0.61-3.98,0h0c-1.1-0.61-1.1-1.6,0-2.21l23.64-13.11
			c1.1-0.61,2.88-0.61,3.98,0l0,0C442.95,300.32,442.95,301.31,441.85,301.92z"/>
	</g>
	<g class="st10">
		<path class="st3" d="M497.27,277.96l-33.87,18.78c-1.1,0.61-2.88,0.61-3.98,0v0c-1.1-0.61-1.1-1.6,0-2.21l33.87-18.78
			c1.1-0.61,2.88-0.61,3.98,0l0,0C498.37,276.36,498.37,277.35,497.27,277.96z"/>
		<path class="st3" d="M495,288.05l-23.64,13.11c-1.1,0.61-2.88,0.61-3.98,0l0,0c-1.1-0.61-1.1-1.6,0-2.21l23.64-13.11
			c1.1-0.61,2.88-0.61,3.98,0l0,0C496.1,286.45,496.1,287.44,495,288.05z"/>
		<path class="st3" d="M502.96,292.47l-23.64,13.11c-1.1,0.61-2.88,0.61-3.98,0h0c-1.1-0.61-1.1-1.6,0-2.21l23.64-13.11
			c1.1-0.61,2.88-0.61,3.98,0v0C504.06,290.87,504.06,291.86,502.96,292.47z"/>
	</g>
	<g class="st10">
		<path class="st3" d="M508.29,330.57l-33.87,18.78c-1.1,0.61-2.88,0.61-3.98,0v0c-1.1-0.61-1.1-1.6,0-2.21l33.87-18.78
			c1.1-0.61,2.88-0.61,3.98,0l0,0C509.39,328.97,509.39,329.96,508.29,330.57z"/>
		<path class="st3" d="M506.02,340.66l-23.64,13.11c-1.1,0.61-2.88,0.61-3.98,0l0,0c-1.1-0.61-1.1-1.6,0-2.21l23.64-13.11
			c1.1-0.61,2.88-0.61,3.98,0h0C507.12,339.06,507.12,340.05,506.02,340.66z"/>
		<path class="st3" d="M513.99,345.08l-23.64,13.11c-1.1,0.61-2.88,0.61-3.98,0l0,0c-1.1-0.61-1.1-1.6,0-2.21L510,342.87
			c1.1-0.61,2.88-0.61,3.98,0v0C515.09,343.48,515.09,344.47,513.99,345.08z"/>
	</g>
	<g>
		<path class="st11" d="M617.78,250.31c-4.15,2.3-8.32,4.61-12.47,6.91c2.1-1.25,3.39-3.82,3.39-7.44c0-6.72,0-13.45,0-20.18
			c0-7.42-5.42-16.43-12.11-20.14c-10.27-5.7-20.55-11.39-30.82-17.09c-3.28-1.81-6.25-2.02-8.42-0.88
			c4.16-2.32,8.33-4.62,12.5-6.94c2.19-1.21,5.22-1.04,8.56,0.82c10.27,5.7,20.54,11.39,30.82,17.09
			c6.68,3.71,12.11,12.72,12.11,20.14c0,6.72,0,13.45,0,20.18C621.32,246.49,619.97,249.09,617.78,250.31z"/>
		<path class="st12" d="M608.69,229.61c0,6.72,0,13.45,0,20.18c0,3.61-1.29,6.19-3.39,7.44c-0.05,0.03-0.11,0.06-0.16,0.09
			c-2.19,1.22-5.21,1.04-8.56-0.82c-10.27-5.69-20.55-11.39-30.82-17.09l-12.11,3.32c0-5.27,0-38.32,0-43.63
			c0-3.71,1.36-6.31,3.55-7.53c0.05-0.03,0.09-0.05,0.13-0.07c2.18-1.14,5.15-0.93,8.42,0.88c10.27,5.7,20.55,11.39,30.82,17.09
			C603.27,213.18,608.69,222.19,608.69,229.61z"/>
		<g>
			<path class="st13" d="M574.69,219.88c0,1.58-1.34,2.13-2.99,1.21s-2.99-2.94-2.99-4.52c0-1.58,1.34-2.13,2.99-1.21
				S574.69,218.29,574.69,219.88z"/>
			<path class="st13" d="M584.16,225.13c0,1.58-1.34,2.13-2.99,1.21c-1.65-0.91-2.99-2.94-2.99-4.52s1.34-2.13,2.99-1.21
				C582.82,221.52,584.16,223.54,584.16,225.13z"/>
			<path class="st13" d="M593.63,230.38c0,1.58-1.34,2.13-2.99,1.21c-1.65-0.91-2.99-2.94-2.99-4.52s1.34-2.13,2.99-1.21
				C592.29,226.77,593.63,228.79,593.63,230.38z"/>
		</g>
	</g>
	<g>
		<path class="st12" d="M568.41,156.73c0,1.03,0,2.06,0,3.09c0-0.85-0.88-1.54-1.97-1.54C567.53,158.27,568.41,157.58,568.41,156.73
			z"/>
		<path class="st12" d="M568.41,154.08c0,0.88,0,1.77,0,2.65c0-0.85-0.88-1.54-1.97-1.54c-0.99,0-3.48,0-4.51,0v-0.02
			c0.05-0.14,0.98-2.84,0.98-5.33c0-0.13,0-0.26,0-0.39c0.64,0,2.62,0,3.53,0c1.09,0,1.97,0.69,1.97,1.54
			C568.41,152.02,568.41,153.05,568.41,154.08z"/>
		<path class="st12" d="M568.03,160.73c0,0.67,0,1.33,0,2.01c0-0.6-0.43-1.12-1.07-1.38h-0.48
			C567.11,161.35,567.68,161.1,568.03,160.73z"/>
		<path class="st12" d="M566.06,164.28c0.27,0,0.53-0.04,0.76-0.12c0,0.47,0,0.93,0,1.41c0-0.51-0.32-0.96-0.8-1.24v-0.05
			C566.03,164.28,566.04,164.28,566.06,164.28z"/>
		<path class="st11" d="M562.91,149.84c0,2.49-0.93,5.19-0.98,5.33v0.02c1.03,0,3.52,0,4.51,0c1.09,0,1.97,0.69,1.97,1.54
			c0,0.85-0.88,1.54-1.97,1.54c1.09,0,1.97,0.69,1.97,1.54c0,0.34-0.14,0.66-0.38,0.91c-0.35,0.37-0.91,0.62-1.55,0.63h0.48
			c0.64,0.26,1.07,0.78,1.07,1.38c0,0.64-0.5,1.19-1.21,1.42v0c-0.23,0.07-0.49,0.12-0.76,0.12c-0.02,0-0.03,0-0.04,0
			c-0.46,0-0.92,0-1.37,0l1.37,0.05c0.49,0.28,0.8,0.73,0.8,1.24c0,0.85-0.88,1.54-1.97,1.54c-0.12,0-0.25,0-0.37,0
			c-1.01,0-2.02,0-3.03,0c-1.58,0-3.16,0-4.75,0c-3,0-5.43-1.91-5.43-4.26c0-1.07,0-3.08,0-4.48c0-1.57,1.22-2.97,3.08-3.55
			c1.77-0.55,3.86-1.87,4.93-4.98c0.89-2.59,3.34-2.51,3.61-0.39C562.9,149.57,562.91,149.7,562.91,149.84z"/>
		<path class="st12" d="M554.35,154.82c-1.86,0.58-3.08,1.98-3.08,3.55c0-0.42,0-0.84,0-1.26c0-0.01,0-0.03,0-0.04
			c0-1.48,0-2.96,0-4.44c0-1.57,1.22-2.97,3.08-3.55c1.77-0.55,3.86-1.87,4.93-4.98c0.94-2.74,3.63-2.49,3.63,0
			c0,1.78,0,3.56,0,5.35c-0.01,0-0.02,0-0.02,0c-0.27-2.12-2.71-2.21-3.61,0.39C558.2,152.95,556.12,154.27,554.35,154.82z"/>
	</g>
	<g>
		<path class="st14" d="M498.18,298.24c0,0.5,0,1,0,1.49l-1.58,0.88l-31.11,17.25c0-0.5,0-1,0-1.5c0-5.76,4.21-12.76,9.4-15.63
			c4.63-2.57,9.26-5.14,13.9-7.71c2.54-1.41,4.85-1.57,6.54-0.68C497.08,293.26,498.18,295.31,498.18,298.24z"/>
		<polygon class="st12" points="498.18,301.49 465.48,319.62 457.86,315.39 459.44,314.51 465.48,317.87 496.59,300.61 		"/>
		<polygon class="st15" points="498.17,317.7 465.5,335.81 457.87,331.58 459.45,330.71 465.5,334.05 496.58,316.82 		"/>
		<path class="st14" d="M498.17,317.7c-0.24,5.65-4.35,12.31-9.39,15.1c-4.63,2.57-9.27,5.14-13.9,7.71
			c-2.6,1.44-4.95,1.57-6.65,0.63c-0.01,0-0.02-0.01-0.02-0.02c-1.58-0.89-2.6-2.72-2.72-5.31L498.17,317.7z"/>
		<path class="st15" d="M487.8,288.17c2.51,1.39,5.02,2.78,7.52,4.17l0,0c-1.69-0.88-4-0.73-6.54,0.68
			c-4.63,2.57-9.27,5.14-13.9,7.71c-5.19,2.88-9.4,9.88-9.4,15.63c0,0.5,0,1,0,1.5l-6.04-3.35l-1.58-0.88c0-0.5,0-1,0-1.49
			c0-5.76,4.21-12.76,9.4-15.63c4.63-2.57,9.26-5.14,13.9-7.71C483.75,287.36,486.1,287.22,487.8,288.17z"/>
		<path class="st15" d="M465.5,335.81c0.12,2.59,1.13,4.41,2.72,5.31c-2.53-1.4-5.07-2.8-7.6-4.21c-1.6-0.88-2.63-2.72-2.74-5.33
			L465.5,335.81z"/>
		<path class="st11" d="M496.58,316.82l-31.09,17.24c-0.02-0.41-0.01,0.52-0.01-14.43l32.7-18.13v13.92c0,0.18,0,0.36-0.01,0.53
			L496.58,316.82z"/>
		<path class="st12" d="M465.48,319.62c0,14.95,0,14.03,0.01,14.43l-6.04-3.35l-1.58-0.88c-0.02-0.38-0.01,0.82-0.01-14.43
			L465.48,319.62z"/>
	</g>
	<g>
		<path class="st15" d="M399.58,176.6c1.21,0.67,2.42,1.34,3.63,2.01v0c-0.72-0.41-1.71-0.35-2.81,0.26
			c-2.19,1.22-3.97,4.18-3.97,6.61c0-1.22-0.45-2.08-1.17-2.47l0,0c-0.74-0.41-1.47-0.82-2.21-1.22c0.57-1.99,2.02-3.98,3.72-4.93
			C397.86,176.26,398.85,176.2,399.58,176.6z"/>
		<path class="st16" d="M404.36,181.08c0,1.13-0.42,2.36-1.01,3.5c-2.31,4.43-4.62,8.86-6.93,13.29c-2.18-2.06-4.5-3.93-6.93-5.6
			c-0.63-0.43-1.01-1.24-1.01-2.37c0-2.44,1.78-5.4,3.97-6.61c1.1-0.61,2.09-0.66,2.81-0.26c0.72,0.39,1.17,1.25,1.17,2.47
			c0-2.43,1.78-5.39,3.97-6.61c1.1-0.61,2.09-0.67,2.81-0.26C403.92,179.01,404.36,179.86,404.36,181.08z"/>
		<path class="st15" d="M388.47,189.9c0,1.13,0.38,1.94,1.01,2.37c2.44,1.67,4.75,3.54,6.93,5.6l-3.63-2.01
			c-2.18-2.06-4.5-3.92-6.93-5.6c-0.63-0.43-1.01-1.24-1.01-2.37c0-2.43,1.78-5.4,3.97-6.61c1.1-0.61,2.09-0.66,2.81-0.26
			c0.47,0.26,0.94,0.52,1.42,0.78c0.74,0.41,1.47,0.81,2.21,1.22l0,0c-0.72-0.4-1.71-0.34-2.81,0.26
			C390.24,184.5,388.47,187.46,388.47,189.9z"/>
	</g>
	<g>
		<path class="st12" d="M610.99,279.82v2.83c0-2.42-2.51-4.39-5.6-4.39c-2.97,0-5.4,1.81-5.58,4.11h-0.01v-2.55
			c0-2.43,2.51-4.39,5.6-4.39S610.99,277.4,610.99,279.82z"/>
		<path class="st11" d="M599.8,294.97c-3.07-3.25-6.33-6.39-9.76-9.4c-0.89-0.78-1.43-1.8-1.43-2.92c0-2.42,2.51-4.39,5.6-4.39
			s5.59,1.97,5.59,4.39c0-0.09,0-0.19,0.01-0.28c0.19-2.29,2.61-4.11,5.58-4.11c3.09,0,5.6,1.97,5.6,4.39
			c0,1.12-0.59,2.11-1.43,2.92C606.3,288.71,603.05,291.84,599.8,294.97z"/>
		<path class="st12" d="M599.81,282.37c-0.01,0.09-0.01,0.19-0.01,0.28c0-2.42-2.5-4.39-5.59-4.39s-5.6,1.97-5.6,4.39
			c0-0.94,0-1.89,0-2.83h0c0-2.31,2.36-4.39,5.6-4.39c3.09,0,5.59,1.96,5.59,4.39v2.55H599.81z"/>
	</g>
	<g>
		<path class="st11" d="M459.83,153.09c0,6.48,0,12.96,0,19.44c0,6.81-4.97,15.09-11.11,18.49c-0.87,0.48-1.73,0.96-2.6,1.44
			l-6.17,14.26l-6.17-7.42c-0.87,0.48-1.73,0.96-2.6,1.44c-0.25,0.14-0.5,0.27-0.75,0.38c-2.77,1.34-5.27,1.39-7.12,0.36
			c-0.05-0.03-0.1-0.06-0.14-0.08c-1.93-1.15-3.11-3.51-3.11-6.83c0-6.48,0-12.96,0-19.44c0-6.81,4.98-15.09,11.12-18.49
			c5.84-3.24,11.69-6.48,17.53-9.72c3.01-1.67,5.74-1.86,7.74-0.81c0.04,0.02,0.08,0.04,0.12,0.06
			C458.59,147.3,459.83,149.69,459.83,153.09z"/>
		<path class="st12" d="M414.31,196.49c-2.01-1.11-3.26-3.51-3.26-6.91c0-6.48,0-12.96,0-19.44c0-6.81,4.97-15.09,11.11-18.49
			c5.84-3.24,11.69-6.48,17.53-9.72c3.07-1.7,5.85-1.86,7.86-0.74c2.97,1.64,5.93,3.29,8.9,4.93c-2-1.05-4.73-0.86-7.74,0.81
			c-5.84,3.24-11.69,6.48-17.53,9.72c-6.14,3.4-11.12,11.68-11.12,18.49c0,6.48,0,12.96,0,19.44c0,3.32,1.18,5.68,3.11,6.83
			C420.22,199.77,417.27,198.13,414.31,196.49z"/>
		<path class="st12" d="M433.78,199.31l6.17,7.42l-9.02-5l-0.49-0.6c0.25-0.12,0.5-0.25,0.75-0.38
			C432.05,200.26,432.92,199.78,433.78,199.31z"/>
		<path class="st17" d="M434.27,172.41c-1.11,0.76-1.95,2.15-1.95,3.23v0.51l-1.63,0.9c-0.49,0.27-0.88,0.87-0.88,1.33
			c0,0.47,0.39,0.63,0.88,0.36l1.63-0.9v0.51c0,1.08,0.84,1.54,1.95,1.06l0.23-0.1v3.34c0,0.47,0.39,0.63,0.88,0.36
			c0.49-0.27,0.88-0.87,0.88-1.33v-3.11l4.82-2.05c0.21,1.08,1.3,1.39,2.6,0.67c1.46-0.81,2.64-2.6,2.64-4v-7.9
			c0-1.4-1.18-1.88-2.64-1.07c-1.3,0.72-2.39,2.24-2.6,3.55L434.27,172.41z M441.05,174.81l-6.54,2.78c-0.24,0.1-0.42,0-0.42-0.23
			v-2.71c0-0.24,0.18-0.54,0.42-0.7l6.54-4.47V174.81z M442.81,167.22c0-0.47,0.39-1.06,0.88-1.33c0.48-0.27,0.88-0.11,0.88,0.36
			v7.9c0,0.47-0.39,1.06-0.88,1.33c-0.48,0.27-0.88,0.11-0.88-0.36V167.22z"/>
	</g>
	<g>
		<path class="st14" d="M411.06,218.16c0,4.68,0,33.83,0,38.47l-10.67-2.93c-12.62,6.99-25.23,13.99-37.85,20.98
			c-2.95,1.63-5.62,1.79-7.55,0.71c-1.93-1.07-3.13-3.36-3.13-6.63c0-5.93,0-11.86,0-17.79c0-6.54,4.78-14.49,10.68-17.75
			c12.61-7,25.23-13.99,37.85-20.99c2.89-1.6,5.51-1.78,7.43-0.78C409.81,212.51,411.06,214.83,411.06,218.16z"/>
		<path class="st15" d="M407.81,211.47c-1.92-1-4.54-0.83-7.43,0.78c-12.62,6.99-25.23,13.99-37.85,20.99
			c-5.9,3.27-10.68,11.22-10.68,17.75c0,5.93,0,11.86,0,17.79c0,3.27,1.19,5.56,3.13,6.63v0c-2.89-1.6-5.77-3.2-8.66-4.8
			c-1.93-1.07-3.13-3.37-3.13-6.64c0-5.93,0-11.86,0-17.79c0-6.54,4.78-14.49,10.68-17.76c12.61-6.99,25.23-13.99,37.85-20.98
			c2.95-1.63,5.62-1.79,7.55-0.72C402.12,208.3,404.97,209.89,407.81,211.47L407.81,211.47z"/>
		<path class="st18" d="M391.44,237.41c0-5.33-4.52-7.16-10.07-4.08c-1.6,0.89-3.14,2.09-4.56,3.57c-1.25,1.3-2.37,2.79-3.26,4.33
			c-0.14,0.03-0.29,0.09-0.44,0.18c-0.81,0.45-1.46,1.44-1.46,2.22c0,0.39,0.17,0.65,0.44,0.76c-0.52,1.48-0.79,2.88-0.79,4.19
			c0,5.33,4.52,7.16,10.07,4.08c1.78-0.99,3.53-2.41,5.06-4.12c1.02-1.14,1.93-2.39,2.68-3.67c0.02-0.02,0.03-0.05,0.05-0.07
			c0.06-0.09,1.05-1.69,1.72-3.93c0.01-0.02,0.01-0.03,0.02-0.05c0.14-0.46,0.24-0.91,0.33-1.35c0.09-0.45,0.16-0.92,0.2-1.4
			c0-0.05,0-0.1-0.01-0.14C391.43,237.75,391.44,237.58,391.44,237.41z M390.55,237.48l-2.88,1.59c-0.01-0.43-0.04-0.85-0.09-1.25
			c0.49-0.5,0.83-1.17,0.83-1.72c0-0.76-0.63-1.03-1.41-0.62c-0.23-0.58-0.52-1.07-0.86-1.48c0.38-0.34,0.76-0.68,1.12-1.04
			C389.17,233.43,390.42,235.01,390.55,237.48z M387.53,236.59c0,0.31-0.26,0.71-0.59,0.89c-0.32,0.18-0.59,0.07-0.59-0.24
			c0-0.31,0.26-0.71,0.59-0.89C387.26,236.17,387.53,236.28,387.53,236.59z M386.44,232.83c-0.25,0.23-0.51,0.46-0.77,0.69
			c-0.25-0.22-0.52-0.39-0.8-0.52c-0.05-0.03-0.11-0.05-0.17-0.07C385.32,232.81,385.9,232.78,386.44,232.83z M381.81,233.96
			c1.09-0.46,2.12-0.34,2.96,0.3c-0.94,0.73-1.93,1.41-2.96,2.01V233.96z M381.81,237.11c1.21-0.7,2.38-1.5,3.47-2.38
			c0.34,0.38,0.63,0.87,0.87,1.45c-0.4,0.47-0.67,1.06-0.67,1.55c0,0.7,0.53,0.98,1.23,0.7c0.04,0.36,0.07,0.74,0.08,1.13
			l-4.98,2.76V237.11z M381.81,243.17l4.98-2.76c-0.06,2.17-0.59,4.46-1.52,6.52l0,0c-1.09,0.33-2.26,0.82-3.47,1.46v-1.38
			c0.59-0.51,1.02-1.28,1.02-1.91c0-0.63-0.43-0.92-1.02-0.77V243.17z M380.93,234.44v2.31c-1.03,0.54-2.03,0.97-2.97,1.28
			C378.8,236.46,379.83,235.2,380.93,234.44z M377.21,237.43c0.27-0.29,0.55-0.56,0.84-0.83c-0.35,0.52-0.68,1.08-0.98,1.68
			c-0.26,0.07-0.52,0.12-0.77,0.16C376.59,238.1,376.9,237.76,377.21,237.43z M373.12,242.26c0.32-0.18,0.59-0.07,0.59,0.24
			s-0.26,0.71-0.59,0.89c-0.32,0.18-0.59,0.07-0.59-0.24C372.53,242.83,372.8,242.43,373.12,242.26z M372.88,244.34
			c0.08-0.03,0.16-0.07,0.24-0.12c0.81-0.45,1.46-1.44,1.46-2.22c0-0.32-0.11-0.56-0.3-0.69c0.36-0.62,0.77-1.24,1.21-1.83
			c0.36-0.04,0.73-0.11,1.12-0.2c-0.43,0.99-0.78,2.05-1.05,3.15c-0.06,0.26,0.08,0.41,0.31,0.34c0.04-0.01,0.08-0.03,0.11-0.05
			c0.19-0.11,0.37-0.33,0.42-0.55c0.26-1.1,0.62-2.16,1.05-3.13c1.09-0.33,2.26-0.82,3.47-1.46v5.22l-4.98,2.76
			c0.01-0.45,0.05-0.9,0.1-1.35c0.03-0.25-0.14-0.36-0.38-0.25c-0.24,0.11-0.46,0.39-0.49,0.64c-0.06,0.49-0.09,0.98-0.1,1.46
			l-2.88,1.59C372.24,246.61,372.47,245.5,372.88,244.34z M372.19,248.5l2.88-1.59c0.06,2.17,0.6,3.94,1.53,5.08
			c-0.39,0.34-0.76,0.68-1.12,1.04C373.57,252.55,372.32,250.98,372.19,248.5z M376.3,253.15c0.25-0.23,0.51-0.46,0.77-0.69
			c0.3,0.26,0.62,0.46,0.96,0.6C377.42,253.17,376.84,253.2,376.3,253.15z M380.93,252.02c-1.08,0.46-2.11,0.35-2.97-0.3
			c0.94-0.73,1.93-1.41,2.97-2.01V252.02z M380.93,248.88c-1.21,0.7-2.38,1.5-3.47,2.38c-0.92-1.04-1.46-2.74-1.52-4.84l4.98-2.76
			v1.16h0c-0.59,0.51-1.02,1.28-1.02,1.91c0,0.63,0.43,0.92,1.02,0.77V248.88z M381.37,246.47c-0.32,0.18-0.59,0.07-0.59-0.24
			s0.26-0.71,0.59-0.89c0.32-0.18,0.59-0.07,0.59,0.24C381.96,245.89,381.69,246.29,381.37,246.47z M381.81,251.54v-2.31
			c1.03-0.54,2.03-0.97,2.97-1.28C383.92,249.55,382.89,250.79,381.81,251.54z M385.99,248.05c-0.41,0.46-0.84,0.9-1.28,1.31
			c0.34-0.51,0.66-1.07,0.96-1.66c0.26-0.07,0.52-0.12,0.77-0.16C386.3,247.71,386.15,247.88,385.99,248.05z M387.26,246.5
			c-0.36,0.04-0.74,0.11-1.12,0.2c0.94-2.17,1.47-4.54,1.53-6.78l2.88-1.59c-0.02,0.46-0.08,0.93-0.17,1.42
			c-0.25,1.27-0.67,2.41-1.05,3.27c-0.01,0.02-0.03,0.05-0.04,0.07C388.75,244.25,388.06,245.4,387.26,246.5z"/>
	</g>
	<g>
		<path class="st14" d="M490.07,216.41c0,9.08,0,18.16,0,27.23c0,9.54-6.97,21.13-15.57,25.9c-1.21,0.67-2.42,1.34-3.64,2.01
			l-8.64,19.98l-8.64-10.39c-1.21,0.67-2.43,1.34-3.64,2.01c-0.35,0.19-0.7,0.38-1.05,0.54c-3.88,1.87-7.38,1.94-9.97,0.51
			c-0.07-0.04-0.13-0.08-0.2-0.12c-2.7-1.61-4.36-4.91-4.36-9.56c0-9.08,0-18.15,0-27.23c0-9.54,6.97-21.14,15.57-25.9
			c8.18-4.53,16.37-9.08,24.55-13.61c4.22-2.34,8.04-2.6,10.84-1.14c0.05,0.03,0.11,0.06,0.17,0.09
			C488.33,208.29,490.07,211.64,490.07,216.41z"/>
		<path class="st15" d="M426.32,277.19c-2.82-1.56-4.56-4.92-4.56-9.68c0-9.08,0-18.15,0-27.23c0-9.54,6.97-21.13,15.57-25.9
			c8.18-4.53,16.37-9.08,24.55-13.62c4.3-2.38,8.19-2.6,11.01-1.04c4.16,2.3,8.31,4.61,12.46,6.91c-2.8-1.46-6.62-1.2-10.84,1.14
			c-8.18,4.53-16.37,9.08-24.55,13.61c-8.6,4.77-15.57,16.36-15.57,25.9c0,9.08,0,18.15,0,27.23c0,4.65,1.66,7.95,4.36,9.56
			C434.6,281.78,430.46,279.49,426.32,277.19z"/>
		<path class="st15" d="M453.59,281.14l8.64,10.39l-12.63-7l-0.69-0.84c0.34-0.16,0.69-0.34,1.05-0.54
			C451.16,282.48,452.38,281.8,453.59,281.14z"/>
		<g>
			<path class="st18" d="M462.23,263.11c-0.26,0-0.52-0.1-0.71-0.28c-3.19-3-6.6-5.76-10.14-8.18c-1.24-0.85-1.92-2.38-1.92-4.3
				c0-3.97,2.8-8.64,6.39-10.63c1.89-1.05,3.72-1.19,5.16-0.39c0.36,0.19,0.68,0.44,0.95,0.73c1.06-2.82,3.17-5.49,5.65-6.86
				c1.91-1.06,3.75-1.19,5.18-0.38c1.43,0.78,2.22,2.38,2.22,4.48c0,1.68-0.54,3.57-1.61,5.61c-3.42,6.55-6.84,13.11-10.26,19.66
				c-0.14,0.28-0.42,0.47-0.74,0.52C462.34,263.11,462.28,263.11,462.23,263.11z M458.96,240.77c-0.62,0-1.34,0.22-2.11,0.64
				c-2.92,1.61-5.38,5.71-5.38,8.95c0,1.28,0.38,2.24,1.08,2.72c3.26,2.24,6.42,4.74,9.39,7.46c3.22-6.16,6.43-12.32,9.65-18.48
				c0.91-1.75,1.4-3.39,1.4-4.75c0-1.38-0.43-2.38-1.21-2.81c-0.79-0.44-1.91-0.31-3.16,0.39c-2.91,1.62-5.38,5.72-5.38,8.95
				c0,0.53-0.45,0.97-1.01,0.97c-0.56,0-1.01-0.43-1.01-0.97c0-1.37-0.44-2.39-1.22-2.81C459.7,240.85,459.35,240.77,458.96,240.77z
				"/>
		</g>
	</g>
	<g>
		<path class="st11" d="M613.16,339.51c0,0.69-0.28,1.09-0.59,1.26c-11.79,6.54-23.58,13.08-35.37,19.61v-3.07l-2.98-1.65
			c11.82-6.56,23.65-13.12,35.47-19.67c0.4-0.22,0.95-0.1,1.39,0.11c0.59,0.29,0.99,0.74,1.33,1.26
			C612.83,338.02,613.16,338.76,613.16,339.51z"/>
		<path class="st11" d="M592.64,319.4c0.34,0.81,0.51,1.83,0.44,3.08c1.81-0.89,3.43-0.93,4.63-0.27c1.29,0.71,2.09,2.23,2.09,4.42
			c0,4.37-3.19,9.68-7.13,11.86c-9.3,5.16-18.61,10.32-27.92,15.48c-2.02,1.12-3.84,1.2-5.13,0.42c-1.24-0.74-2-2.25-2-4.38
			c0-3.8,2.43-8.32,5.66-10.87c-2.5-5.91,2.45-16.14,9.19-19.87c2.68-1.49,5.11-1.65,6.87-0.69c0.02,0.01,0.04,0.02,0.06,0.03
			c1.19,0.65,2.07,1.81,2.53,3.4c2.98-4.18,6.83-5.64,9.13-4.4C591.74,317.98,592.28,318.57,592.64,319.4z"/>
		<path class="st12" d="M592.64,319.4c1.69,0.93,3.38,1.88,5.07,2.81l-0.01,0.01c-1.19-0.67-2.82-0.62-4.63,0.27
			C593.15,321.23,592.98,320.21,592.64,319.4z"/>
		<path class="st19" d="M578.44,310.62c4.21,2.33,8.42,4.67,12.63,7c-2.31-1.24-6.15,0.21-9.13,4.4c-0.46-1.59-1.34-2.75-2.53-3.4
			c-0.02-0.01-0.04-0.02-0.06-0.03c-2.97-1.66-5.96-3.3-8.93-4.96c0.94-1.04,1.99-1.92,3.11-2.55
			C575.44,310.02,577.17,309.92,578.44,310.62z"/>
		<polygon class="st14" points="577.19,360.39 577.19,363.29 571.81,366.27 571.81,360.3 577.19,357.32 		"/>
		<polygon class="st15" points="577.19,357.32 571.81,360.3 566.23,357.21 571.6,354.22 574.21,355.67 		"/>
		<path class="st15" d="M571.81,360.3v5.97l-2.6-1.44c0.39-0.22,0.78-0.43,1.17-0.65c0.38-0.17,0.67-0.6,0.67-1.31
			c0-1.35-1.13-3.05-2.29-3.5c-0.45-0.18-0.83-0.17-1.11-0.05c-0.05,0.02-0.09,0.05-0.13,0.07c-0.43,0.24-0.87,0.48-1.3,0.72v-2.89
			L571.81,360.3z"/>
		<path class="st12" d="M566.82,311.64c1.19,0.66,2.39,1.33,3.59,1.99c2.97,1.65,5.96,3.3,8.93,4.96c-1.77-0.95-4.2-0.8-6.87,0.69
			c-6.74,3.73-11.69,13.96-9.19,19.87l-12.63-7c-2.51-5.92,2.46-16.14,9.19-19.87c2.71-1.5,5.17-1.64,6.94-0.65
			C566.79,311.62,566.81,311.64,566.82,311.64z"/>
		<path class="st19" d="M550.65,332.14l12.63,7c-3.23,2.55-5.66,7.07-5.66,10.87c0,2.13,0.76,3.64,2,4.38v0.01
			c-4.17-2.32-8.36-4.64-12.54-6.96c-1.29-0.71-2.09-2.25-2.09-4.43C544.99,339.21,547.42,334.68,550.65,332.14z"/>
		<path class="st11" d="M534.33,383.23c-0.06-2.16-2.27-4.2-3.46-3.51l-0.01-0.01c11.78-6.54,23.58-13.08,35.37-19.61
			c0.43-0.24,0.87-0.48,1.3-0.72c0.04-0.03,0.08-0.05,0.13-0.07c0.28-0.12,0.66-0.13,1.11,0.05c1.15,0.45,2.29,2.16,2.29,3.5
			c0,0.71-0.29,1.13-0.67,1.31c-0.39,0.22-0.78,0.43-1.17,0.65c-11.82,6.56-23.65,13.11-35.48,19.67l-0.01-0.01
			c0.18-0.1,0.32-0.25,0.42-0.41C534.29,383.82,534.34,383.52,534.33,383.23z"/>
		<path class="st12" d="M532.57,384.48c-1.67-0.67-2.78-3.25-2.12-4.35c0.11-0.19,0.26-0.33,0.42-0.42c1.19-0.69,3.4,1.35,3.46,3.51
			c0.01,0.3-0.03,0.59-0.18,0.84c-0.1,0.16-0.24,0.31-0.42,0.41c-0.09,0.05-0.18,0.09-0.28,0.12
			C533.16,384.67,532.85,384.6,532.57,384.48z"/>
		<g>
			<path class="st17" d="M573.98,339.02c0,1.31-1.11,2.99-2.47,3.74c-1.37,0.76-2.47,0.31-2.47-1c0-1.31,1.11-2.99,2.47-3.74
				C572.87,337.26,573.98,337.71,573.98,339.02z"/>
			<path class="st17" d="M581.81,334.68c0,1.31-1.11,2.99-2.47,3.74c-1.37,0.76-2.47,0.31-2.47-1c0-1.31,1.11-2.99,2.47-3.74
				S581.81,333.37,581.81,334.68z"/>
			<path class="st17" d="M589.65,330.33c0,1.31-1.11,2.99-2.47,3.74c-1.36,0.76-2.47,0.31-2.47-1c0-1.31,1.11-2.99,2.47-3.74
				C588.54,328.57,589.65,329.02,589.65,330.33z"/>
		</g>
	</g>
	<g>
		<path class="st11" d="M540.01,219.62c0,4.33,0,8.66,0,12.99c0,4.77-3.49,10.58-7.79,12.96c-6.61,3.67-13.23,7.33-19.84,11
			l-7.79,10.78c0-3.39,0-24.67,0-28.08c0-4.77,3.49-10.58,7.79-12.97c6.61-3.66,13.23-7.33,19.84-11c2.11-1.17,4.02-1.3,5.42-0.57
			C539.11,215.49,540.01,217.19,540.01,219.62z"/>
		<path class="st12" d="M529.7,210.32c2.65,1.47,5.3,2.94,7.95,4.41c-1.4-0.73-3.31-0.6-5.42,0.57c-6.61,3.67-13.23,7.33-19.84,11
			c-4.3,2.39-7.79,8.19-7.79,12.97c0,3.41,0,24.69,0,28.08l-8.13-4.51c0-3.39,0-24.66,0-28.09c0-4.77,3.49-10.57,7.79-12.96
			c6.62-3.66,13.23-7.33,19.84-11c2.15-1.19,4.1-1.3,5.51-0.53C529.63,210.29,529.66,210.3,529.7,210.32z"/>
		<g>
			<path class="st17" d="M519.83,242.26c1.31,0.62,2.61,0.68,2.75,0.69c0.06,0,0.12-0.01,0.19-0.05c0.08-0.04,0.15-0.1,0.2-0.18
				c0.19-0.22,1.46-1.7,2.74-3.72c1.82-2.88,2.78-5.48,2.78-7.52c0-1.47-0.6-2.52-1.68-2.96c-1.08-0.44-2.52-0.21-4.04,0.63l0,0
				c0,0,0,0,0,0c-3.15,1.75-5.72,5.64-5.72,8.67C517.05,239.87,518.01,241.4,519.83,242.26L519.83,242.26z M522.77,229.83
				c1.34-0.74,2.6-0.94,3.55-0.56c0.95,0.38,1.47,1.31,1.47,2.59c0,2.35-1.4,5.07-2.58,6.93c-1.01,1.6-2.04,2.87-2.44,3.36
				c-0.41-0.04-1.43-0.17-2.44-0.65c-1.18-0.56-2.58-1.72-2.58-4.07C517.75,234.78,520,231.37,522.77,229.83z"/>
			<path class="st17" d="M525.91,233.22c0-1.8-1.62-2.28-3.46-1.08c-1.61,1.05-2.82,3.02-2.82,4.56c0,0.83,0.35,1.39,0.92,1.62
				c1.48,0.6,3.95-1.11,4.96-3.42C525.77,234.33,525.91,233.75,525.91,233.22z M520.34,236.32c0-1.3,1.11-2.96,2.44-3.69
				c1.35-0.75,2.44-0.3,2.44,0.99c0,1.29-1.09,2.95-2.44,3.69C521.42,238.05,520.34,237.6,520.34,236.32z"/>
		</g>
	</g>
	<g>
		<path class="st14" d="M577.25,261.24c0,6.73,0,13.45,0,20.18c0,7.42-5.42,16.43-12.11,20.14c-10.27,5.7-20.55,11.39-30.82,17.09
			l-12.11,16.74c0-5.27,0-38.33,0-43.63c0-7.42,5.42-16.43,12.11-20.15c10.27-5.69,20.55-11.39,30.82-17.09
			c3.28-1.81,6.25-2.02,8.42-0.89C575.84,254.83,577.25,257.46,577.25,261.24z"/>
		<path class="st15" d="M561.22,246.79c4.12,2.28,8.24,4.57,12.35,6.85c-2.18-1.13-5.15-0.93-8.42,0.89
			c-10.27,5.7-20.55,11.39-30.82,17.09c-6.68,3.71-12.11,12.73-12.11,20.15c0,5.31,0,38.37,0,43.63l-12.63-7c0-5.27,0-38.32,0-43.64
			c0-7.41,5.42-16.43,12.11-20.14c10.28-5.69,20.55-11.39,30.82-17.09c3.35-1.85,6.37-2.03,8.56-0.82
			C561.12,246.73,561.17,246.76,561.22,246.79z"/>
		<g>
			<path class="st18" d="M562.1,271.83l-20.09,11.14l-6.77-1.19c-0.39-0.07-0.91,0.17-1.35,0.62c-0.44,0.45-0.71,1.03-0.71,1.5
				v20.17c0,2.08,1.76,2.79,3.92,1.59l8.68-4.82l4.95-2.74l11.37-6.3c2.16-1.2,3.92-3.87,3.92-5.94v-12.43
				C566.02,271.35,564.26,270.63,562.1,271.83z M563.45,287.28c0,0.72-0.61,1.64-1.36,2.06l-11.37,6.3l-4.95,2.74l-8.68,4.82
				c-0.75,0.41-1.36,0.17-1.36-0.55v-17.68l5.06,0.89c0.22,0.04,0.5-0.02,0.78-0.18l20.52-11.38c0.75-0.41,1.36-0.17,1.36,0.55
				V287.28z"/>
			<path class="st18" d="M558.56,285.39l-17.11,9.49c-0.71,0.39-1.28,1.26-1.28,1.94c0,0.68,0.57,0.91,1.28,0.52l17.11-9.49
				c0.71-0.39,1.28-1.26,1.28-1.94C559.84,285.24,559.27,285,558.56,285.39z"/>
			<path class="st18" d="M541.45,291.76l15.4-8.54c0.71-0.39,1.28-1.26,1.28-1.94c0-0.68-0.57-0.91-1.28-0.52l-15.4,8.54
				c-0.71,0.39-1.28,1.26-1.28,1.94C540.17,291.92,540.74,292.15,541.45,291.76z"/>
		</g>
	</g>
	<g>
		<path class="st14" d="M534.56,196.77c-4.15,2.3-8.32,4.61-12.47,6.91c2.1-1.25,3.39-3.82,3.39-7.44c0-6.72,0-13.45,0-20.18
			c0-7.42-5.42-16.43-12.11-20.14c-10.27-5.7-20.55-11.39-30.82-17.09c-3.28-1.81-6.25-2.02-8.42-0.88
			c4.16-2.32,8.33-4.62,12.5-6.94c2.19-1.21,5.22-1.04,8.56,0.82c10.27,5.7,20.54,11.39,30.82,17.09
			c6.68,3.71,12.11,12.72,12.11,20.14c0,6.72,0,13.45,0,20.18C538.11,192.95,536.75,195.56,534.56,196.77z"/>
		<path class="st15" d="M525.47,176.07c0,6.72,0,13.45,0,20.18c0,3.61-1.29,6.19-3.39,7.44c-0.05,0.03-0.11,0.06-0.16,0.09
			c-2.19,1.22-5.21,1.04-8.56-0.82c-10.27-5.69-20.55-11.39-30.82-17.09l-12.11,3.32c0-5.27,0-38.32,0-43.63
			c0-3.71,1.36-6.31,3.55-7.53c0.05-0.03,0.09-0.05,0.13-0.07c2.18-1.14,5.15-0.93,8.42,0.88c10.27,5.7,20.55,11.39,30.82,17.09
			C520.05,159.64,525.47,168.65,525.47,176.07z"/>
		<path class="st13" d="M505.65,176.64l-14.28-15.82c-0.34-0.38-0.76-0.61-1.1-0.61c-0.34,0-0.55,0.23-0.55,0.61v15.8
			c0,0.38,0.21,0.84,0.55,1.22c0.17,0.19,0.36,0.34,0.55,0.45c0.19,0.1,0.38,0.16,0.55,0.16l4.21,0.01c0,0,0,0,0.01,0l10.07,0.01
			c0.34,0,0.55-0.23,0.55-0.61S505.99,177.02,505.65,176.64z M496.36,176.03C496.36,176.03,496.36,176.03,496.36,176.03l-4.45-0.01
			v-12.15l10.99,12.17L496.36,176.03z"/>
	</g>
</g>
<path class="st0" d="M114.9,383.58c4.81,2.78,4.81,7.28,0,10.06c-4.81,2.78-12.62,2.78-17.43,0c-4.81-2.78-4.81-7.28,0-10.06
	S110.08,380.8,114.9,383.58z"/>
<path class="st0" d="M663.13,395.84c4.81,2.78,4.81,7.28,0,10.06c-4.81,2.78-12.62,2.78-17.43,0c-4.81-2.78-4.81-7.28,0-10.06
	C650.52,393.06,658.32,393.06,663.13,395.84z"/>
<path class="st0" d="M217.1,375.46c2.99,1.73,2.99,4.52,0,6.25c-2.99,1.73-7.84,1.73-10.83,0c-2.99-1.73-2.99-4.52,0-6.25
	S214.11,373.73,217.1,375.46z"/>
<path class="st0" d="M667.49,230.8c2.99,1.73,2.99,4.53,0,6.25c-2.99,1.73-7.84,1.73-10.83,0c-2.99-1.73-2.99-4.53,0-6.25
	C659.65,229.07,664.5,229.07,667.49,230.8z"/>
<path class="st0" d="M242.24,316.71c2.99,1.73,2.99,4.52,0,6.25c-2.99,1.73-7.84,1.73-10.83,0c-2.99-1.73-2.99-4.52,0-6.25
	C234.4,314.98,239.25,314.98,242.24,316.71z"/>
<path class="st0" d="M252.97,0L252.97,0c0,51.42-41.69,93.11-93.11,93.11H0V0H252.97z"/>
<path class="st0" d="M151.47,468.46L151.47,468.46c0,17.42-14.12,31.54-31.54,31.54H0v0c0-30.59,24.79-55.38,55.38-55.38h72.25
	C140.79,444.62,151.47,455.3,151.47,468.46z"/>
<path class="st0" d="M548.53,31.54L548.53,31.54C548.53,14.12,562.65,0,580.07,0H700v0c0,30.59-24.79,55.38-55.38,55.38h-72.25
	C559.21,55.38,548.53,44.7,548.53,31.54z"/>
</svg>
