<?xml version="1.0" encoding="utf-8"?>
<!-- Generator: Adobe Illustrator 26.2.1, SVG Export Plug-In . SVG Version: 6.00 Build 0)  -->
<svg version="1.1" id="Layer_1" xmlns="http://www.w3.org/2000/svg" xmlns:xlink="http://www.w3.org/1999/xlink" x="0px" y="0px"
	 viewBox="0 0 700 500" style="enable-background:new 0 0 700 500;" xml:space="preserve">
<style type="text/css">
	.st0{fill:#FBFAFC;}
	.st1{fill:#EAE8ED;}
</style>
<rect class="st0" width="700" height="104.77"/>
<g>
	<g>
		<path class="st1" d="M331.96,384.01l-66.2,38.22c-2.15,1.24-5.64,1.24-7.79,0l0,0c-2.15-1.24-2.15-3.25,0-4.5l66.2-38.22
			c2.15-1.24,5.64-1.24,7.79,0l0,0C334.11,380.76,334.11,382.77,331.96,384.01z"/>
		<path class="st1" d="M383.1,354.48l-34.99,20.2c-2.15,1.24-5.64,1.24-7.79,0l0,0c-2.15-1.24-2.15-3.25,0-4.5l34.99-20.2
			c2.15-1.24,5.64-1.24,7.79,0h0C385.25,351.23,385.25,353.24,383.1,354.48z"/>
	</g>
	<path class="st1" d="M351.58,352.62l-66.2,38.22c-2.15,1.24-5.64,1.24-7.79,0l0,0c-2.15-1.24-2.15-3.25,0-4.5l66.2-38.22
		c2.15-1.24,5.64-1.24,7.79,0l0,0C353.73,349.37,353.73,351.38,351.58,352.62z"/>
	<path class="st1" d="M436.23,303.75l-66.2,38.22c-2.15,1.24-5.64,1.24-7.79,0l0,0c-2.15-1.24-2.15-3.25,0-4.5l66.2-38.22
		c2.15-1.24,5.64-1.24,7.79,0l0,0C438.39,300.5,438.39,302.51,436.23,303.75z"/>
	<path class="st1" d="M474.25,321.91l-66.2,38.22c-2.15,1.24-5.64,1.24-7.79,0l0,0c-2.15-1.24-2.15-3.25,0-4.5l66.2-38.22
		c2.15-1.24,5.64-1.24,7.79,0l0,0C476.41,318.66,476.41,320.67,474.25,321.91z"/>
	<path class="st1" d="M349.33,394.04l-19.38,11.19c-2.15,1.24-5.64,1.24-7.79,0l0,0c-2.15-1.24-2.15-3.25,0-4.5l19.38-11.19
		c2.15-1.24,5.64-1.24,7.79,0l0,0C351.48,390.78,351.48,392.8,349.33,394.04z"/>
	<path class="st1" d="M515.46,298.12l-19.38,11.19c-2.15,1.24-5.64,1.24-7.79,0l0,0c-2.15-1.24-2.15-3.25,0-4.5l19.38-11.19
		c2.15-1.24,5.64-1.24,7.79,0l0,0C517.61,294.86,517.61,296.88,515.46,298.12z"/>
	<path class="st1" d="M364.75,324.97l-66.2,38.22c-2.15,1.24-5.64,1.24-7.79,0l0,0c-2.15-1.24-2.15-3.25,0-4.5l66.2-38.22
		c2.15-1.24,5.64-1.24,7.79,0l0,0C366.9,321.71,366.9,323.72,364.75,324.97z"/>
	<path class="st1" d="M405.96,301.17l-19.38,11.19c-2.15,1.24-5.64,1.24-7.79,0l0,0c-2.15-1.24-2.15-3.25,0-4.5l19.38-11.19
		c2.15-1.24,5.64-1.24,7.79,0l0,0C408.11,297.92,408.11,299.93,405.96,301.17z"/>
</g>
<g>
	<g>
		<path class="st1" d="M482.49,375.14l-66.2,38.22c-2.15,1.24-5.64,1.24-7.79,0l0,0c-2.15-1.24-2.15-3.25,0-4.5l66.2-38.22
			c2.15-1.24,5.64-1.24,7.79,0l0,0C484.64,371.89,484.64,373.9,482.49,375.14z"/>
		<path class="st1" d="M533.64,345.61l-34.99,20.2c-2.15,1.24-5.64,1.24-7.79,0l0,0c-2.15-1.24-2.15-3.25,0-4.5l34.99-20.2
			c2.15-1.24,5.64-1.24,7.79,0l0,0C535.79,342.36,535.79,344.37,533.64,345.61z"/>
	</g>
	<path class="st1" d="M502.12,343.75l-66.2,38.22c-2.15,1.24-5.64,1.24-7.79,0l0,0c-2.15-1.24-2.15-3.25,0-4.5l66.2-38.22
		c2.15-1.24,5.64-1.24,7.79,0l0,0C504.27,340.5,504.27,342.51,502.12,343.75z"/>
	<path class="st1" d="M586.77,294.88l-66.2,38.22c-2.15,1.24-5.64,1.24-7.79,0h0c-2.15-1.24-2.15-3.25,0-4.5l66.2-38.22
		c2.15-1.24,5.64-1.24,7.79,0l0,0C588.92,291.63,588.92,293.64,586.77,294.88z"/>
	<path class="st1" d="M624.79,313.04l-66.2,38.22c-2.15,1.24-5.64,1.24-7.79,0v0c-2.15-1.24-2.15-3.25,0-4.5l66.2-38.22
		c2.15-1.24,5.64-1.24,7.79,0l0,0C626.94,309.79,626.94,311.8,624.79,313.04z"/>
	<path class="st1" d="M499.86,385.17l-19.38,11.19c-2.15,1.24-5.64,1.24-7.79,0l0,0c-2.15-1.24-2.15-3.25,0-4.5l19.38-11.19
		c2.15-1.24,5.64-1.24,7.79,0l0,0C502.01,381.91,502.01,383.93,499.86,385.17z"/>
	<path class="st1" d="M666,289.25l-19.38,11.19c-2.15,1.24-5.64,1.24-7.79,0l0,0c-2.15-1.24-2.15-3.25,0-4.5l19.38-11.19
		c2.15-1.24,5.64-1.24,7.79,0l0,0C668.15,285.99,668.15,288.01,666,289.25z"/>
	<path class="st1" d="M515.29,316.1l-66.2,38.22c-2.15,1.24-5.64,1.24-7.79,0l0,0c-2.15-1.24-2.15-3.25,0-4.5l66.2-38.22
		c2.15-1.24,5.64-1.24,7.79,0l0,0C517.44,312.84,517.44,314.85,515.29,316.1z"/>
	<path class="st1" d="M556.5,292.3l-19.38,11.19c-2.15,1.24-5.64,1.24-7.79,0l0,0c-2.15-1.24-2.15-3.25,0-4.5l19.38-11.19
		c2.15-1.24,5.64-1.24,7.79,0l0,0C558.65,289.05,558.65,291.06,556.5,292.3z"/>
</g>
<path class="st1" d="M114.9,383.58c4.81,2.78,4.81,7.28,0,10.06c-4.81,2.78-12.62,2.78-17.43,0c-4.81-2.78-4.81-7.28,0-10.06
	S110.08,380.8,114.9,383.58z"/>
<path class="st1" d="M663.13,395.84c4.81,2.78,4.81,7.28,0,10.06c-4.81,2.78-12.62,2.78-17.43,0c-4.81-2.78-4.81-7.28,0-10.06
	C650.52,393.06,658.32,393.06,663.13,395.84z"/>
<path class="st1" d="M217.1,375.46c2.99,1.73,2.99,4.52,0,6.25c-2.99,1.73-7.84,1.73-10.83,0c-2.99-1.73-2.99-4.52,0-6.25
	S214.11,373.73,217.1,375.46z"/>
<path class="st1" d="M667.49,230.8c2.99,1.73,2.99,4.53,0,6.25c-2.99,1.73-7.84,1.73-10.83,0c-2.99-1.73-2.99-4.53,0-6.25
	C659.65,229.07,664.5,229.07,667.49,230.8z"/>
<path class="st1" d="M242.24,316.71c2.99,1.73,2.99,4.52,0,6.25c-2.99,1.73-7.84,1.73-10.83,0c-2.99-1.73-2.99-4.52,0-6.25
	C234.4,314.98,239.25,314.98,242.24,316.71z"/>
<path class="st1" d="M252.97,0L252.97,0c0,51.42-41.69,93.11-93.11,93.11H0V0H252.97z"/>
<path class="st1" d="M151.47,468.46L151.47,468.46c0,17.42-14.12,31.54-31.54,31.54H0v0c0-30.59,24.79-55.38,55.38-55.38h72.25
	C140.79,444.62,151.47,455.3,151.47,468.46z"/>
<path class="st1" d="M548.53,31.54L548.53,31.54C548.53,14.12,562.65,0,580.07,0H700v0c0,30.59-24.79,55.38-55.38,55.38h-72.25
	C559.21,55.38,548.53,44.7,548.53,31.54z"/>
</svg>
